<?xml version="1.0" encoding="utf-8"?>
<!-- Generator: Adobe Illustrator 15.0.2, SVG Export Plug-In . SVG Version: 6.00 Build 0)  -->
<!DOCTYPE svg PUBLIC "-//W3C//DTD SVG 1.1//EN" "http://www.w3.org/Graphics/SVG/1.1/DTD/svg11.dtd">
<svg version="1.1" id="Layer_1" xmlns="http://www.w3.org/2000/svg" xmlns:xlink="http://www.w3.org/1999/xlink" x="0px" y="0px"
	 width="38.333px" height="51.667px" viewBox="0 0 38.333 51.667" enable-background="new 0 0 38.333 51.667" xml:space="preserve">
<g>
	<defs>
		<rect id="SVGID_1_" x="6" y="7.478" width="28.662" height="40.189"/>
	</defs>
	<clipPath id="SVGID_2_">
		<use xlink:href="#SVGID_1_"  overflow="visible"/>
	</clipPath>
	<path clip-path="url(#SVGID_2_)" fill="#FFFFFF" d="M29.332,7.524c1.056,0.094,2.713,0.614,3.961,1.709
		c1.328,1.287,1.63,3.243,1.165,5.021c-0.412,1.583-0.876,2.405-2.491,3.5c-1.634,1.102-3.607,1.01-3.607,1.01v6.859l3.336,2.7
		l-3.338,2.691l0.002,9.345c0,0,3.342-1.917,5.418-6.207c0,0,0.086-0.234,0.279-0.675c0.184,1.149,0.077,3.479-1.221,6.462
		c-0.982,2.251-2.764,4.416-5.001,5.65c-3.961,2.199-6.93,2.406-10.117,1.747c-3.727-0.767-7.115-2.862-9.428-6.518
		c-1.624-2.569-2.352-5.564-2.286-8.786c0.131-6.325,4.837-11.78,10.267-13.814c0.663-0.249,0.926-0.41,1.865-0.496
		c-0.433,0.295-0.932,0.675-1.547,1.076c-1.75,1.15-3.247,3.439-3.888,5.199l10.543-4.7v14.737l-8.502,4.26
		c0.969,1.348,3.911,3.377,6.429,3.665c4.286,0.473,6.797-1.396,6.797-1.396v-9.55l-3.319-2.691l3.323-2.694v-6.865
		c-1.813-0.212-4.013-0.809-5.299-1.128c-1.889-0.463-8.195-2.234-9.184-2.382c-0.989-0.146-2.211-0.101-2.95,0.56
		c-0.741,0.668-1.199,1.838-0.884,2.894c0.177,0.599,0.588,0.949,0.9,1.289c0,0-0.363-0.031-1.023-0.427
		c-1.19-0.714-2.095-2.111-2.206-3.834c-0.139-2.259,0.791-4.291,2.653-5.658c1.618-1.039,3.449-1.707,5.577-1.404
		c3.104,0.442,7.279,2.198,10.997,3.089c1.441,0.35,2.557,0.465,3.571-0.123c0.469-0.344,1.297-1.219,0.62-2.383
		c-0.791-1.367-2.309-1.337-3.592-1.575C28.258,7.447,28.5,7.447,29.332,7.524 M16.796,36.826V22.598l-4.281,1.909
		c-0.001,0-1.093,2.442-0.901,5.988c0.152,2.771,1.702,6.086,2.89,7.475L16.796,36.826z"/>
</g>
</svg>
